<svg width="36" height="16" xmlns="http://www.w3.org/2000/svg">

 <g>
  <title>Layer 1</title>
  <g id="svg_1" transform="matrix(0.0803784 0 0 0.08961 -0.030505 -0.00529585)">
   <g id="svg_2"/>
   <path id="svg_3" fill="none" d="m9.33084,2.78986l1024,0l0,768l-1024,0l0,-768z"/>
   <g id="svg_4" transform="matrix(0.1 0 0 -0.1 0 176)"/>
   <path id="svg_5" fill-rule="nonzero" fill="#D50B0B" d="m58.13084,7.88986c-18.7,2.4 -34.5,13.3 -41.4,28.4c-5.6,12.1 -5.5,29.9 0.2,41.1c5.4,10.7 18.8,20.6 33,24.6c7.3,2 10.3,2.2 40.9,2.3c38.8,0.2 41.7,0.6 48.1,7.1c9.1,9 6.7,22.6 -5.1,29.1l0,0l-5,2.8l-52.7,0.3l-52.7,0.3l-0.3,14.2c-0.2,8.7 0.1,14.5 0.7,14.9c1.4,1.1 113.2,0.9 124.2,-0.1c7.7,-0.8 10.4,-1.6 16.2,-4.6c7.9,-4.2 15.8,-11.4 19.7,-18c1.4,-2.5 3.2,-4.5 3.9,-4.5c0.7,0 2.9,2.2 4.9,4.9c6.9,9.7 18.5,16.5 34.7,20.4c9.4,2.2 9.7,2.2 107.4,2.2l0,0l98,0l0.3,-48.6l0.2,-48.7l-2.2,-0.6c-1.3,-0.3 -23.6,-0.6 -49.5,-0.6l0,0l-47.3,0l0,14.5l0,14.5l29,0l29,0l0,20.6l0,20.5l-32.2,-0.3l-32.3,-0.3l-5.1,-2.7c-4.9,-2.6 -12.4,-9.1 -12.4,-10.8c0,-0.5 -0.6,-1.5 -1.3,-2.2c-4,-4.2 -9.7,-18.8 -9.7,-25.1c0,-1.5 -2.1,-1.7 -22.6,-1.7l0,0l-22.7,0l0.6,5.2c1.1,8.7 8.5,29.8 11.8,33.4c1,1.1 1.9,2.8 1.9,3.7c0,1.5 -1.2,1.7 -8.7,1.7c-13.7,-0.1 -17.2,-1.4 -25.3,-9.5c-5.1,-5 -7.4,-8.2 -8.4,-11.5c-1.1,-3.4 -1.7,-16.5 -2.5,-54c-0.6,-27.2 -1.1,-52.8 -1.1,-56.8l0,0l0,-7.2l-78.7,0.1c-43.4,0.1 -81.8,0.5 -85.5,1zm122.2,53.9c0,28.9 0,28.7 -6.4,23.3c-1.7,-1.4 -5.6,-3.7 -8.6,-5.1c-10.5,-4.6 -16,-5.2 -53,-5.2c-33.2,0 -34.7,-0.1 -38.5,-2.1c-5.7,-3 -8.5,-5.8 -10.6,-10.7c-3.4,-7.9 -2.1,-14.2 4,-19.7c7.6,-6.9 4.1,-6.5 61.3,-6.5l0,0l51.8,0l0,26z"/>
   <g id="svg_6" transform="matrix(0.1 0 0 -0.1 0 176)"/>
   <path id="svg_7" fill-rule="nonzero" fill="#D50B0B" d="m318.33085,7.88986c-9.3,1.6 -18.3,4.7 -24.8,8.6c-12.1,7.3 -25.5,23 -31.6,36.6c-2.6,5.9 -6.6,18.4 -6.6,20.6c0,0.8 6.3,1.1 22.4,1.1l0,0l22.3,0l0.7,-4.1c1.1,-7.1 8.6,-19.4 14.3,-23.4c5,-3.6 11.8,-6.5 16.6,-7.1c1.6,-0.2 3.7,-0.8 4.7,-1.4c1.2,-0.6 18.5,-1 46.2,-1c24.4,0 45.3,-0.3 46.6,-0.6c2.1,-0.6 2.2,-1 2.2,-12.4c0,-6.5 -0.3,-13.2 -0.6,-14.9l0,0l-0.6,-3.1l-53.2,0.1c-29.2,0.1 -55.6,0.5 -58.6,1z"/>
  </g>
 </g>
</svg>