<?xml version="1.0" standalone="no"?>
<!DOCTYPE svg PUBLIC "-//W3C//DTD SVG 20010904//EN"
 "http://www.w3.org/TR/2001/REC-SVG-20010904/DTD/svg10.dtd">
<svg version="1.0" xmlns="http://www.w3.org/2000/svg" enable-background="new 0 0 512 512"
 width="426.000000pt" height="176.000000pt" viewBox="0 0 426.000000 176.000000"
 preserveAspectRatio="xMidYMid meet">

<g transform="translate(0.000000,176.000000) scale(0.100000,-0.100000)"
fill="#000000" stroke="none">
<path d="M488 1709 c-187 -24 -345 -133 -414 -284 -56 -121 -55 -299 2 -411
54 -107 188 -206 330 -246 73 -20 103 -22 409 -23 388 -2 417 -6 481 -71 91
-90 67 -226 -51 -291 l-50 -28 -527 -3 -527 -3 -3 -142 c-2 -87 1 -145 7 -149
14 -11 1132 -9 1242 1 77 8 104 16 162 46 79 42 158 114 197 180 14 25 32 45
39 45 7 0 29 -22 49 -49 69 -97 185 -165 347 -204 94 -22 97 -22 1074 -22
l980 0 3 486 2 487 -22 6 c-13 3 -236 6 -495 6 l-473 0 0 -145 0 -145 290 0
290 0 0 -206 0 -205 -322 3 -323 3 -51 27 c-49 26 -124 91 -124 108 0 5 -6 15
-13 22 -40 42 -97 188 -97 251 0 15 -21 17 -226 17 l-227 0 6 -52 c11 -87 85
-298 118 -334 10 -11 19 -28 19 -37 0 -15 -12 -17 -87 -17 -137 1 -172 14
-253 95 -51 50 -74 82 -84 115 -11 34 -17 165 -25 540 -6 272 -11 528 -11 568
l0 72 -787 -1 c-434 -1 -818 -5 -855 -10z m1222 -539 c0 -289 0 -287 -64 -233
-17 14 -56 37 -86 51 -105 46 -160 52 -530 52 -332 0 -347 1 -385 21 -57 30
-85 58 -106 107 -34 79 -21 142 40 197 76 69 41 65 613 65 l518 0 0 -260z"/>
<path d="M3090 1709 c-93 -16 -183 -47 -248 -86 -121 -73 -255 -230 -316 -366
-26 -59 -66 -184 -66 -206 0 -8 63 -11 224 -11 l223 0 7 41 c11 71 86 194 143
234 50 36 118 65 166 71 16 2 37 8 47 14 12 6 185 10 462 10 244 0 453 3 466
6 21 6 22 10 22 124 0 65 -3 132 -6 149 l-6 31 -532 -1 c-292 -1 -556 -5 -586
-10z"/>
</g>
</svg>
