<?xml version="1.0" standalone="no"?>
<!DOCTYPE svg PUBLIC "-//W3C//DTD SVG 1.0//EN" "http://www.w3.org/TR/2001/REC-SVG-20010904/DTD/svg10.dtd">
<svg xmlns="http://www.w3.org/2000/svg" xmlns:xlink="http://www.w3.org/1999/xlink" id="body_1" width="75" height="33">

<g transform="matrix(2.0833335 0 0 2.0625 0 0)">
	<g transform="matrix(0.0803784 0 0 0.08961 -0.030505 -0.00529585)">
	</g>
    <path transform="matrix(0.0803784 0 0 0.08961 -0.030505 -0.00529585)"  d="M9.33084 2.78986L1033.3308 2.78986L1033.3308 770.78986L9.330811 770.78986L9.330811 2.789856L9.33084 2.78986z" stroke="none" fill="none" />
	<g transform="matrix(0.0803784 0 0 0.08961 -0.030505 -0.00529585)">
	</g>
    <path transform="matrix(0.0803784 0 0 0.08961 -0.030505 -0.00529585)"  d="M58.13084 7.88986C 39.43084 10.28986 23.63084 21.189861 16.730839 36.28986C 11.130838 48.389862 11.230839 66.18986 16.93084 77.38986C 22.33084 88.08986 35.73084 97.98986 49.93084 101.98986C 57.23084 103.98986 60.23084 104.18986 90.83084 104.28986C 129.63084 104.48986 132.53084 104.88986 138.93085 111.38986C 148.03085 120.38986 145.63084 133.98987 133.83084 140.48987L133.83084 140.48987L128.83084 143.28987L76.130844 143.58987L23.430843 143.88988L23.130844 158.08987C 22.930843 166.78987 23.230844 172.58987 23.830845 172.98987C 25.230844 174.08987 137.03084 173.88986 148.03084 172.88986C 155.73083 172.08986 158.43083 171.28986 164.23083 168.28986C 172.13083 164.08986 180.03084 156.88986 183.93083 150.28986C 185.33083 147.78986 187.13083 145.78986 187.83083 145.78986C 188.53082 145.78986 190.73082 147.98985 192.73082 150.68985C 199.63081 160.38985 211.23082 167.18985 227.43082 171.08984C 236.83081 173.28984 237.13081 173.28984 334.8308 173.28984L334.8308 173.28984L432.8308 173.28984L433.1308 124.68984L433.3308 75.98984L431.1308 75.38984C 429.8308 75.089836 407.5308 74.78984 381.6308 74.78984L381.6308 74.78984L334.3308 74.78984L334.3308 89.28984L334.3308 103.78984L363.3308 103.78984L392.3308 103.78984L392.3308 124.38984L392.3308 144.88983L360.1308 144.58983L327.8308 144.28983L322.7308 141.58983C 317.8308 138.98982 310.3308 132.48982 310.3308 130.78983C 310.3308 130.28983 309.7308 129.28983 309.03082 128.58983C 305.03082 124.38983 299.3308 109.789825 299.3308 103.48983C 299.3308 101.98983 297.2308 101.78983 276.7308 101.78983L276.7308 101.78983L254.0308 101.78983L254.63081 106.98983C 255.73082 115.68983 263.1308 136.78983 266.43082 140.38983C 267.43082 141.48984 268.3308 143.18983 268.3308 144.08983C 268.3308 145.58983 267.1308 145.78983 259.6308 145.78983C 245.9308 145.68982 242.4308 144.38983 234.3308 136.28983C 229.23079 131.28983 226.9308 128.08983 225.9308 124.789825C 224.8308 121.389824 224.2308 108.289825 223.4308 70.789825C 222.8308 43.589825 222.3308 17.989826 222.3308 13.989826L222.3308 13.989826L222.3308 6.7898264L143.6308 6.8898263C 100.2308 6.989826 61.830795 7.3898263 58.1308 7.8898263L58.1308 7.8898263L58.13084 7.88986zM180.33084 61.789864C 180.33084 90.689865 180.33084 90.48987 173.93085 85.08986C 172.23085 83.68986 168.33084 81.38986 165.33084 79.98986C 154.83084 75.38986 149.33084 74.78986 112.33084 74.78986C 79.130844 74.78986 77.630844 74.689865 73.83084 72.689865C 68.130844 69.689865 65.33084 66.88986 63.230843 61.989864C 59.83084 54.089863 61.130844 47.789864 67.23084 42.289864C 74.83084 35.389862 71.33084 35.789864 128.53084 35.789864L128.53084 35.789864L180.33084 35.789864L180.33084 61.789864z" stroke="none" fill="#D50B0B" fill-rule="nonzero" />
	<g transform="matrix(0.0803784 0 0 0.08961 -0.030505 -0.00529585)">
	</g>
    <path transform="matrix(0.0803784 0 0 0.08961 -0.030505 -0.00529585)"  d="M318.33084 7.88986C 309.03085 9.489861 300.03085 12.58986 293.53085 16.48986C 281.43085 23.78986 268.03085 39.48986 261.93085 53.08986C 259.33084 58.98986 255.33084 71.48986 255.33084 73.68986C 255.33084 74.48986 261.63083 74.789856 277.73083 74.789856L277.73083 74.789856L300.03082 74.789856L300.73083 70.68986C 301.83084 63.58986 309.33084 51.289856 315.03082 47.289856C 320.03082 43.689857 326.8308 40.789856 331.63083 40.189857C 333.23083 39.989857 335.33084 39.38986 336.33084 38.789856C 337.53085 38.189857 354.83084 37.789856 382.53085 37.789856C 406.93085 37.789856 427.83084 37.489857 429.13086 37.189857C 431.23087 36.58986 431.33087 36.189857 431.33087 24.789858C 431.33087 18.289858 431.03088 11.589858 430.73087 9.889858L430.73087 9.889858L430.13086 6.7898583L376.93085 6.8898582C 347.73083 6.989858 321.33084 7.3898582 318.33084 7.8898582L318.33084 7.8898582L318.33084 7.88986z" stroke="none" fill="#D50B0B" fill-rule="nonzero" />
</g>
</svg>