<?xml version="1.0" standalone="no"?>
<!DOCTYPE svg PUBLIC "-//W3C//DTD SVG 20010904//EN"
 "http://www.w3.org/TR/2001/REC-SVG-20010904/DTD/svg10.dtd">
<svg version="1.0" xmlns="http://www.w3.org/2000/svg"
 width="851.000000pt" height="431.000000pt" viewBox="0 0 851.000000 431.000000"
 preserveAspectRatio="xMidYMid meet">

<g transform="translate(0.000000,431.000000) scale(0.100000,-0.100000)"
fill="#000000" stroke="none">
<path d="M0 2155 l0 -2155 4255 0 4255 0 0 2155 0 2155 -4255 0 -4255 0 0
-2155z m789 -1372 c37 -137 139 -568 136 -573 -2 -3 -22 -4 -44 -2 -40 4 -40
4 -52 61 -6 31 -16 62 -21 69 -14 16 -110 16 -130 0 -8 -7 -20 -39 -27 -70
l-12 -58 -45 0 c-41 0 -44 2 -39 23 3 12 25 108 50 212 26 105 52 219 60 255
24 112 29 120 74 120 38 0 41 -2 50 -37z m986 -268 l0 -300 -94 -3 c-78 -2
-97 0 -114 15 -64 57 -82 266 -32 364 28 54 54 69 117 69 l58 0 0 81 0 80 33
-3 32 -3 0 -300z m817 259 c4 -57 -2 -66 -38 -62 -26 3 -29 7 -32 42 -5 53 3
66 37 66 27 0 29 -3 33 -46z m1558 -3 c0 -49 -1 -50 -32 -53 -30 -3 -33 -7
-36 -38 -3 -34 -2 -35 30 -35 32 0 33 -1 36 -47 l3 -48 -35 0 -36 0 0 -170 0
-170 -40 0 -40 0 0 169 c0 168 0 170 -22 173 -20 3 -23 9 -23 48 0 41 2 45 23
43 18 -2 22 2 22 25 1 103 34 152 105 152 l45 0 0 -49z m658 -9 l3 -53 -37 3
c-35 3 -38 5 -37 36 3 77 1 73 36 70 31 -3 32 -4 35 -56z m1042 -247 l0 -305
-35 0 -35 0 0 298 c0 164 3 302 7 305 3 4 19 7 35 7 l28 0 0 -305z m510 0 l0
-305 -98 0 c-111 0 -114 1 -148 80 -29 67 -27 239 4 297 30 57 56 73 119 73
l53 0 0 73 c0 41 3 77 7 80 3 4 19 7 35 7 l28 0 0 -305z m590 225 l0 -80 50 0
c71 0 95 -15 122 -74 19 -42 23 -68 23 -151 0 -105 -12 -156 -46 -199 -20 -25
-25 -26 -120 -26 l-99 0 0 298 c0 164 3 302 7 305 3 4 19 7 35 7 l28 0 0 -80z
m610 25 l0 -55 -35 0 -35 0 0 48 c0 57 4 62 42 62 27 0 28 -1 28 -55z m121
-37 c1 -51 2 -187 3 -303 l1 -210 -37 -3 -38 -3 0 299 c0 164 3 302 7 305 3 4
19 7 35 7 l28 0 1 -92z m-4083 -116 l3 -52 -40 0 -41 0 0 -175 0 -175 -35 0
-35 0 0 225 0 225 35 0 c28 0 35 -4 35 -20 0 -17 2 -17 25 6 36 35 49 26 53
-34z m-2428 -7 l0 -55 -60 0 c-53 0 -61 -3 -76 -25 -20 -30 -29 -100 -20 -150
11 -56 36 -75 101 -75 l55 0 0 -45 0 -45 -74 0 c-58 0 -79 4 -99 20 -40 32
-62 102 -62 200 0 100 22 167 66 205 26 21 40 25 100 25 l69 0 0 -55z m233 44
c48 -22 60 -68 65 -261 l4 -178 -110 0 c-107 0 -111 1 -131 26 -26 34 -36 100
-21 155 19 69 32 79 112 79 l68 0 0 35 c0 44 -20 55 -104 55 l-66 0 0 50 0 50
80 0 c43 0 90 -5 103 -11z m645 -36 l-3 -47 -53 -2 c-61 -2 -79 -15 -88 -62
l-6 -32 76 0 77 0 -3 -47 -3 -48 -74 -3 -73 -3 6 -31 c3 -17 9 -34 12 -37 3
-3 33 -8 67 -11 l62 -5 3 -43 3 -42 -69 0 c-54 0 -75 4 -94 20 -77 60 -96 248
-36 367 31 62 50 73 131 73 l68 0 -3 -47z m366 36 c45 -21 56 -71 56 -263 l0
-174 -30 -4 c-17 -3 -32 -2 -35 0 -3 3 -5 75 -5 161 0 86 -4 162 -8 168 -4 7
-22 16 -40 19 l-32 7 0 -177 0 -176 -35 0 -35 0 0 175 0 175 -40 0 -40 0 0
-175 0 -175 -35 0 -35 0 0 225 0 225 145 0 c86 0 154 -5 169 -11z m178 -194
c1 -113 2 -213 2 -222 1 -14 -8 -19 -36 -21 l-38 -3 0 219 c0 120 3 222 7 225
3 4 19 7 35 7 l28 0 2 -205z m247 191 c48 -25 55 -55 59 -253 l4 -183 -109 0
c-125 0 -133 4 -153 78 -14 53 -4 124 22 157 16 21 28 25 91 27 l72 3 -3 30
c-6 48 -18 55 -98 55 l-74 0 0 50 0 50 80 0 c51 0 91 -5 109 -14z m491 -1 c52
-27 74 -85 74 -200 1 -109 -12 -159 -51 -205 -22 -27 -31 -30 -79 -30 l-54 0
0 -86 0 -85 -35 3 c-20 2 -35 6 -35 11 0 4 0 142 0 307 l0 300 75 0 c49 0 87
-6 105 -15z m515 -9 c14 -9 35 -35 47 -59 20 -36 23 -57 23 -147 0 -89 -4
-112 -22 -147 -33 -62 -66 -83 -129 -83 -45 0 -57 4 -83 31 -76 75 -82 291
-11 377 44 53 119 65 175 28z m555 -21 c0 -42 -2 -45 -27 -47 -16 -1 -35 -2
-43 -4 -8 -1 -23 -2 -32 -3 -19 -1 -32 -21 -42 -63 l-6 -28 75 0 75 0 0 -50 0
-50 -75 0 c-41 0 -75 -2 -75 -5 0 -3 7 -21 14 -40 15 -34 16 -35 75 -35 l61 0
0 -45 0 -45 -68 0 c-81 0 -101 12 -132 77 -49 104 -33 274 32 349 29 33 33 34
99 34 l69 0 0 -45z m278 3 l-3 -43 -80 -5 c-86 -5 -94 -12 -81 -66 6 -22 11
-24 65 -24 87 0 111 -31 111 -144 0 -49 -5 -71 -23 -97 l-23 -34 -99 0 -100 0
0 40 0 40 82 3 c79 3 83 4 89 27 3 14 3 36 0 50 -6 23 -11 25 -61 25 -60 0
-87 17 -105 66 -22 57 -2 174 33 196 7 4 54 8 105 8 l93 0 -3 -42z m127 -183
l0 -220 -32 -3 -33 -3 0 226 0 226 33 -3 32 -3 0 -220z m272 193 c48 -44 68
-103 66 -203 -1 -153 -51 -225 -153 -225 -45 0 -56 4 -85 33 -42 42 -55 89
-55 200 0 90 14 142 48 181 45 50 133 57 179 14z m297 21 c43 -20 56 -81 56
-270 l0 -167 -24 -4 c-14 -3 -29 -2 -35 1 -5 4 -11 76 -13 169 -3 179 -4 182
-65 182 l-33 0 0 -175 0 -175 -35 0 -35 0 0 225 0 225 80 0 c43 0 90 -5 104
-11z m305 -5 c43 -31 51 -70 51 -259 l0 -175 -107 0 c-106 1 -108 1 -128 28
-28 38 -29 164 -1 205 17 25 23 27 92 27 74 0 74 0 74 27 0 47 -25 63 -102 63
l-68 0 0 50 0 50 83 0 c60 0 89 -4 106 -16z m949 -31 c-3 -52 3 -48 -84 -52
-26 -1 -35 -8 -48 -35 -25 -54 -23 -56 59 -56 l75 0 0 -50 0 -50 -75 0 c-81 0
-84 -3 -60 -50 15 -28 19 -30 75 -30 l60 0 0 -45 0 -45 -66 0 c-36 0 -74 5
-85 10 -10 6 -31 34 -46 63 -24 46 -27 64 -28 147 0 111 20 175 66 215 26 21
41 25 95 25 l65 0 -3 -47z m761 31 c42 -30 50 -69 52 -255 l1 -174 -94 -3
c-51 -2 -103 0 -115 3 -51 12 -70 165 -28 229 16 24 23 26 91 26 l74 0 0 29
c0 48 -22 61 -101 61 l-69 0 0 50 0 50 83 0 c60 0 89 -4 106 -16z m171 -209
l0 -225 -35 0 -35 0 0 225 0 225 35 0 35 0 0 -225z m395 175 l0 -45 -53 -1
c-62 -2 -92 -23 -92 -65 0 -28 0 -28 73 -31 l72 -3 0 -45 0 -45 -73 0 c-71 0
-72 0 -72 -26 0 -44 19 -58 85 -61 l60 -3 0 -40 0 -40 -69 -3 c-63 -3 -71 -1
-97 24 -44 43 -64 106 -63 204 0 67 5 97 23 138 35 77 60 93 140 90 l66 -3 0
-45z"/>
<path d="M713 550 c-11 -49 -18 -92 -15 -95 3 -3 23 -5 44 -5 26 0 38 4 38 14
0 23 -32 161 -40 169 -3 4 -16 -33 -27 -83z"/>
<path d="M1604 535 c-20 -31 -28 -91 -20 -148 9 -61 24 -77 71 -80 l40 -2 3
128 3 127 -40 0 c-32 0 -44 -5 -57 -25z"/>
<path d="M6188 533 c-23 -40 -29 -92 -19 -147 11 -60 26 -75 76 -78 l40 -3 3
128 3 127 -44 0 c-36 0 -45 -4 -59 -27z"/>
<path d="M6952 433 c3 -115 5 -128 21 -131 34 -7 67 8 82 38 27 53 16 191 -18
212 -7 4 -29 8 -50 8 l-38 0 3 -127z"/>
<path d="M1291 376 c-7 -8 -11 -27 -9 -43 3 -26 6 -28 54 -31 l52 -3 4 41 c2
23 2 43 -1 46 -11 11 -90 3 -100 -10z"/>
<path d="M2721 376 c-7 -8 -11 -27 -9 -43 3 -27 6 -28 61 -31 l58 -3 -3 43 -3
43 -46 3 c-31 2 -50 -2 -58 -12z"/>
<path d="M3227 564 c-4 -4 -7 -65 -7 -136 l0 -128 34 0 c54 0 76 39 76 133 0
65 -3 80 -22 101 -24 26 -68 43 -81 30z"/>
<path d="M3723 534 c-24 -38 -30 -148 -10 -197 16 -37 51 -55 82 -43 43 16 60
160 27 226 -13 27 -24 36 -49 38 -25 3 -35 -2 -50 -24z"/>
<path d="M4952 535 c-70 -89 -7 -291 74 -237 25 16 37 60 37 130 0 57 -4 79
-20 100 -27 37 -65 40 -91 7z"/>
<path d="M5555 370 c-15 -17 -16 -24 -7 -45 10 -22 18 -25 62 -25 l50 0 0 45
0 45 -43 0 c-31 0 -49 -6 -62 -20z"/>
<path d="M7271 376 c-7 -8 -11 -27 -9 -43 3 -26 6 -28 56 -31 l52 -3 0 45 0
46 -44 0 c-26 0 -48 -6 -55 -14z"/>
</g>
</svg>
